<mxfile host="app.diagrams.net" modified="2023-07-12T06:15:34.343Z" agent="Mozilla/5.0 (X11; Ubuntu; Linux x86_64; rv:109.0) Gecko/20100101 Firefox/115.0" etag="YtuMv9gucYjEROz42Mb0" version="21.6.1" type="github">
  <diagram name="Page-1" id="K0WAjGH_iA_Ia-yU8khX">
    <mxGraphModel dx="1914" dy="1035" grid="1" gridSize="10" guides="1" tooltips="1" connect="1" arrows="1" fold="1" page="1" pageScale="1" pageWidth="850" pageHeight="1100" math="0" shadow="0">
      <root>
        <mxCell id="0" />
        <mxCell id="1" parent="0" />
        <mxCell id="2WBSosveJddkKj6nldm6-1" value="&lt;div&gt;&lt;b&gt;&lt;u&gt;translate&lt;/u&gt;&lt;/b&gt;&lt;/div&gt;&lt;div&gt;&lt;b&gt;&lt;u&gt;&lt;br&gt;&lt;/u&gt;&lt;/b&gt;&lt;/div&gt;&lt;div&gt;&lt;b&gt;- input checks&lt;u&gt;&lt;br&gt;&lt;/u&gt;&lt;/b&gt;&lt;/div&gt;" style="rounded=1;whiteSpace=wrap;html=1;strokeColor=#FFB366;fillColor=#FFB366;" vertex="1" parent="1">
          <mxGeometry x="20" y="210" width="120" height="100" as="geometry" />
        </mxCell>
        <mxCell id="2WBSosveJddkKj6nldm6-2" value="&lt;div&gt;&lt;b&gt;&lt;u&gt;compiler_a2a&lt;/u&gt;&lt;/b&gt;&lt;/div&gt;&lt;div&gt;&lt;b&gt;&lt;u&gt;&lt;br&gt;&lt;/u&gt;&lt;/b&gt;&lt;/div&gt;&lt;div align=&quot;justify&quot;&gt;&lt;b&gt;1. create instance of class&amp;nbsp;MA (Main class)&lt;br&gt;&lt;/b&gt;&lt;/div&gt;&lt;div align=&quot;justify&quot;&gt;&lt;b&gt;&lt;br&gt;&lt;/b&gt;&lt;/div&gt;&lt;div align=&quot;justify&quot;&gt;&lt;b&gt;2. call of MA$build_own&lt;br&gt;&lt;/b&gt;&lt;/div&gt;" style="rounded=1;whiteSpace=wrap;html=1;strokeColor=#FFB366;fillColor=#FFB366;" vertex="1" parent="1">
          <mxGeometry x="200" y="210" width="200" height="100" as="geometry" />
        </mxCell>
        <mxCell id="2WBSosveJddkKj6nldm6-3" value="" style="endArrow=classic;html=1;rounded=0;exitX=1;exitY=0.5;exitDx=0;exitDy=0;" edge="1" parent="1" source="2WBSosveJddkKj6nldm6-1">
          <mxGeometry width="50" height="50" relative="1" as="geometry">
            <mxPoint x="450" y="560" as="sourcePoint" />
            <mxPoint x="200" y="260" as="targetPoint" />
          </mxGeometry>
        </mxCell>
        <mxCell id="2WBSosveJddkKj6nldm6-8" value="&lt;div align=&quot;left&quot;&gt;&lt;b&gt;&lt;u&gt;Class MA&lt;/u&gt;&lt;/b&gt;&lt;br&gt;&lt;/div&gt;&lt;div align=&quot;left&quot;&gt;&lt;b&gt;&lt;u&gt;&lt;br&gt;&lt;/u&gt;&lt;/b&gt;&lt;/div&gt;&lt;div align=&quot;left&quot;&gt;&lt;b&gt;1. build_own&lt;/b&gt;&lt;/div&gt;&lt;div align=&quot;left&quot;&gt;&lt;b&gt;&lt;span style=&quot;white-space: pre;&quot;&gt;&#x9;&lt;/span&gt;1.2 getast&lt;/b&gt;&lt;/div&gt;&lt;div align=&quot;left&quot;&gt;&lt;b&gt;&lt;span style=&quot;white-space: pre;&quot;&gt;&#x9;&lt;/span&gt;1.3. ast2call&lt;/b&gt;&lt;/div&gt;&lt;div align=&quot;left&quot;&gt;&lt;b&gt;&lt;span style=&quot;white-space: pre;&quot;&gt;&#x9;&lt;/span&gt;1.4. call2char &lt;br&gt;&lt;/b&gt;&lt;/div&gt;&lt;div align=&quot;left&quot;&gt;&lt;b&gt;&lt;br&gt;&lt;/b&gt;&lt;/div&gt;&lt;div align=&quot;left&quot;&gt;&lt;b&gt;&amp;nbsp;In the function getast the translation happens. Therefore an instance of class LC (Line class) is created&lt;br&gt;&lt;/b&gt;&lt;/div&gt;" style="rounded=1;whiteSpace=wrap;html=1;strokeColor=#FFB366;fillColor=#FFB366;align=left;" vertex="1" parent="1">
          <mxGeometry x="479" y="210" width="120" height="210" as="geometry" />
        </mxCell>
        <mxCell id="2WBSosveJddkKj6nldm6-9" value="" style="endArrow=classic;html=1;rounded=0;exitX=1;exitY=0.5;exitDx=0;exitDy=0;" edge="1" parent="1">
          <mxGeometry width="50" height="50" relative="1" as="geometry">
            <mxPoint x="400" y="259.5" as="sourcePoint" />
            <mxPoint x="480" y="260" as="targetPoint" />
          </mxGeometry>
        </mxCell>
        <mxCell id="2WBSosveJddkKj6nldm6-10" value="&lt;div align=&quot;left&quot;&gt;&lt;b&gt;&lt;u&gt;Class LC&lt;/u&gt;&lt;/b&gt;&lt;br&gt;&lt;/div&gt;&lt;div&gt;&lt;b&gt;1. initialize&lt;/b&gt;&lt;/div&gt;&lt;div&gt;&lt;b&gt;&lt;span style=&quot;white-space: pre;&quot;&gt;&#x9;&lt;/span&gt;1.1 extractast&lt;/b&gt;&lt;/div&gt;&lt;div&gt;&lt;b&gt;&lt;br&gt;&lt;/b&gt;&lt;/div&gt;&lt;div&gt;&lt;b&gt;Within extractast each supported function is handled. The code is passed to the matching node_class. Here the actual translation takes place. &lt;br&gt;&lt;/b&gt;&lt;/div&gt;" style="rounded=1;whiteSpace=wrap;html=1;strokeColor=#FFB366;fillColor=#FFB366;align=left;" vertex="1" parent="1">
          <mxGeometry x="670" y="210" width="120" height="210" as="geometry" />
        </mxCell>
        <mxCell id="2WBSosveJddkKj6nldm6-11" value="&lt;div align=&quot;left&quot;&gt;&lt;b&gt;&lt;u&gt;node classes&lt;/u&gt;&lt;/b&gt;&lt;br&gt;&lt;/div&gt;&lt;div&gt;&lt;br&gt;&lt;/div&gt;&lt;div&gt;&lt;b&gt;- Class PC contains methods which are needed by all other classes.&amp;nbsp;&lt;/b&gt;&lt;/div&gt;&lt;div&gt;&lt;b&gt;- all other classes inherit from PC&lt;/b&gt;&lt;/div&gt;&lt;div&gt;&lt;b&gt;&lt;br&gt;&lt;/b&gt;&lt;/div&gt;&lt;div&gt;&lt;b&gt;-&lt;font color=&quot;#ff0000&quot;&gt; Missing classes for:&lt;/font&gt;&lt;/b&gt;&lt;/div&gt;&lt;div&gt;&lt;font color=&quot;#ff0000&quot;&gt;&lt;b&gt;&lt;span style=&quot;white-space: pre;&quot;&gt;&#x9;&lt;/span&gt;- if&lt;/b&gt;&lt;/font&gt;&lt;/div&gt;&lt;div&gt;&lt;font color=&quot;#ff0000&quot;&gt;&lt;b&gt;&lt;span style=&quot;white-space: pre;&quot;&gt;&#x9;&lt;/span&gt;- else if&lt;/b&gt;&lt;/font&gt;&lt;/div&gt;&lt;div&gt;&lt;font color=&quot;#ff0000&quot;&gt;&lt;b&gt;&lt;span style=&quot;white-space: pre;&quot;&gt;&#x9;&lt;/span&gt;- else&lt;/b&gt;&lt;/font&gt;&lt;/div&gt;&lt;div&gt;&lt;b&gt;&lt;br&gt;&lt;/b&gt;&lt;/div&gt;" style="rounded=1;whiteSpace=wrap;html=1;strokeColor=#FFB366;fillColor=#FFB366;align=left;" vertex="1" parent="1">
          <mxGeometry x="670" y="550" width="120" height="290" as="geometry" />
        </mxCell>
        <mxCell id="2WBSosveJddkKj6nldm6-12" value="" style="endArrow=classic;html=1;rounded=0;exitX=1;exitY=0.25;exitDx=0;exitDy=0;entryX=0;entryY=0.25;entryDx=0;entryDy=0;" edge="1" parent="1" source="2WBSosveJddkKj6nldm6-8" target="2WBSosveJddkKj6nldm6-10">
          <mxGeometry width="50" height="50" relative="1" as="geometry">
            <mxPoint x="450" y="560" as="sourcePoint" />
            <mxPoint x="500" y="510" as="targetPoint" />
          </mxGeometry>
        </mxCell>
        <mxCell id="2WBSosveJddkKj6nldm6-13" value="" style="endArrow=classic;html=1;rounded=0;exitX=0.5;exitY=1;exitDx=0;exitDy=0;entryX=0.5;entryY=0;entryDx=0;entryDy=0;" edge="1" parent="1" source="2WBSosveJddkKj6nldm6-10" target="2WBSosveJddkKj6nldm6-11">
          <mxGeometry width="50" height="50" relative="1" as="geometry">
            <mxPoint x="450" y="560" as="sourcePoint" />
            <mxPoint x="500" y="510" as="targetPoint" />
          </mxGeometry>
        </mxCell>
      </root>
    </mxGraphModel>
  </diagram>
</mxfile>
